<svg width="1093" height="287" viewBox="0 0 1093 287" fill="none" xmlns="http://www.w3.org/2000/svg">
<g id="Vector">
<path d="M147.722 115.03C153.222 115.03 157.732 116.68 161.252 119.98C164.772 123.06 166.532 127.13 166.532 132.19V265.84C166.532 270.9 164.772 275.08 161.252 278.38C157.732 281.46 153.222 283 147.722 283C142.442 283 138.152 281.79 134.852 279.37C131.772 276.73 129.902 273.32 129.242 269.14C121.982 274.86 113.732 279.15 104.492 282.01C95.4721 284.87 86.5621 286.3 77.7621 286.3C61.9221 286.3 48.1721 282.67 36.5121 275.41C25.0721 268.15 16.2721 257.92 10.1121 244.72C3.95207 231.52 0.87207 216.12 0.87207 198.52C0.87207 181.58 4.28207 166.62 11.1021 153.64C17.9221 140.44 27.3821 130.21 39.4821 122.95C51.8021 115.47 65.9921 111.73 82.0521 111.73C89.5321 111.73 97.4521 113.16 105.812 116.02C114.392 118.88 122.202 122.95 129.242 128.23C130.122 124.05 132.102 120.86 135.182 118.66C138.482 116.24 142.662 115.03 147.722 115.03ZM81.7221 252.97C92.0621 252.97 101.522 250.77 110.102 246.37C118.902 241.97 125.172 235.7 128.912 227.56V170.47C124.952 162.55 118.792 156.39 110.432 151.99C102.292 147.37 93.7121 145.06 84.6921 145.06C70.8321 145.06 59.6121 150.12 51.0321 160.24C42.6721 170.14 38.4921 183.01 38.4921 198.85C38.4921 215.13 42.4521 228.22 50.3721 238.12C58.2921 248.02 68.7421 252.97 81.7221 252.97Z" fill="white"/>
<path d="M276.822 115.03C282.982 115.03 287.712 116.35 291.012 118.99C294.532 121.63 296.292 125.7 296.292 131.2C296.292 136.48 294.532 140.66 291.012 143.74C287.492 146.82 282.762 148.36 276.822 148.36C263.402 148.36 253.722 153.09 247.782 162.55C242.062 172.01 239.202 185.65 239.202 203.47V266.17C239.202 271.01 237.442 275.08 233.922 278.38C230.402 281.46 226.112 283 221.052 283C215.332 283 210.712 281.46 207.192 278.38C203.672 275.3 201.912 271.23 201.912 266.17V131.86C201.912 126.8 203.782 122.73 207.522 119.65C211.482 116.57 215.992 115.03 221.052 115.03C225.892 115.03 230.072 116.57 233.592 119.65C237.332 122.51 239.202 126.58 239.202 131.86V133.84C248.442 121.3 260.982 115.03 276.822 115.03Z" fill="white"/>
<path d="M393.288 251.65C397.248 249.67 400.878 248.68 404.178 248.68C408.798 248.68 412.648 250.33 415.728 253.63C419.028 256.71 420.678 260.45 420.678 264.85C420.678 267.93 419.688 270.9 417.708 273.76C415.948 276.4 413.308 278.71 409.788 280.69C405.168 283.11 400.988 284.65 397.248 285.31C393.728 285.97 388.888 286.3 382.728 286.3C347.308 286.3 329.598 265.62 329.598 224.26V146.38H317.059C311.339 146.38 306.829 144.84 303.529 141.76C300.449 138.68 298.908 135.05 298.908 130.87C298.908 126.69 300.449 123.06 303.529 119.98C306.829 116.68 311.339 115.03 317.059 115.03H329.598V86.65C329.598 81.37 331.358 77.19 334.878 74.11C338.618 71.03 343.018 69.49 348.078 69.49C353.138 69.49 357.539 71.03 361.279 74.11C365.019 77.19 366.888 81.37 366.888 86.65V115.03H392.628C398.128 115.03 402.419 116.68 405.499 119.98C408.799 123.06 410.448 126.69 410.448 130.87C410.448 135.05 408.799 138.68 405.499 141.76C402.419 144.84 398.128 146.38 392.628 146.38H366.888V224.26C366.888 233.28 367.878 240.54 369.858 246.04C372.058 251.32 376.348 253.96 382.728 253.96C386.248 253.96 389.768 253.19 393.288 251.65Z" fill="white"/>
<path d="M495.511 96.88C491.111 96.88 487.371 98.31 484.291 101.17C481.211 104.03 479.671 107.99 479.671 113.05V118.66H501.451C506.511 118.66 510.361 120.2 513.001 123.28C515.861 126.36 517.291 129.99 517.291 134.17C517.291 138.57 515.861 142.31 513.001 145.39C510.361 148.25 506.511 149.68 501.451 149.68H479.671V266.5C479.671 271.56 477.801 275.63 474.061 278.71C470.321 281.57 465.921 283 460.861 283C455.801 283 451.401 281.57 447.661 278.71C443.921 275.63 442.051 271.56 442.051 266.5V149.68H433.471C428.191 149.68 424.011 148.14 420.931 145.06C418.071 141.98 416.641 138.35 416.641 134.17C416.641 129.99 418.071 126.36 420.931 123.28C424.011 120.2 428.191 118.66 433.471 118.66H442.051V113.05C442.051 103.15 444.471 94.57 449.311 87.31C454.151 80.05 460.531 74.55 468.451 70.81C476.591 66.85 485.171 64.87 494.191 64.87C508.931 64.87 520.811 68.83 529.831 76.75C533.791 80.05 535.771 84.12 535.771 88.96C535.771 93.58 534.011 97.65 530.491 101.17C527.191 104.69 523.231 106.45 518.611 106.45C514.651 106.45 510.801 104.8 507.061 101.5C503.981 98.42 500.131 96.88 495.511 96.88Z" fill="white"/>
<path d="M602.382 111.73C619.762 111.73 635.052 115.47 648.252 122.95C661.672 130.21 672.012 140.55 679.272 153.97C686.532 167.17 690.162 182.46 690.162 199.84C689.942 217 686.092 232.18 678.612 245.38C671.352 258.36 661.122 268.48 647.922 275.74C634.722 282.78 619.542 286.3 602.382 286.3C585.222 286.3 570.042 282.78 556.842 275.74C543.642 268.48 533.302 258.36 525.822 245.38C518.562 232.18 514.822 217 514.602 199.84C514.602 182.46 518.232 167.17 525.492 153.97C532.972 140.55 543.312 130.21 556.512 122.95C569.712 115.47 585.002 111.73 602.382 111.73ZM602.382 253.3C617.122 253.3 629.002 248.35 638.022 238.45C647.042 228.55 651.552 215.68 651.552 199.84C651.552 183.56 647.042 170.36 638.022 160.24C629.002 149.9 617.122 144.73 602.382 144.73C587.642 144.73 575.762 149.9 566.742 160.24C557.722 170.36 553.212 183.56 553.212 199.84C553.212 215.68 557.722 228.55 566.742 238.45C575.762 248.35 587.642 253.3 602.382 253.3Z" fill="white"/>
<path d="M739.665 266.5C739.665 270.9 737.795 274.75 734.055 278.05C730.535 281.35 726.135 283 720.855 283C715.355 283 710.845 281.46 707.325 278.38C703.805 275.08 702.045 271.12 702.045 266.5V85.99C702.045 81.37 703.805 77.52 707.325 74.44C710.845 71.14 715.355 69.49 720.855 69.49C726.135 69.49 730.535 71.14 734.055 74.44C737.795 77.74 739.665 81.59 739.665 85.99V266.5Z" fill="white"/>
<path d="M796.804 90.28C796.804 95.56 794.824 99.63 790.864 102.49C787.124 105.35 782.724 106.78 777.664 106.78C772.384 106.78 767.874 105.35 764.134 102.49C760.394 99.63 758.524 95.56 758.524 90.28V85.99C758.524 80.71 760.394 76.64 764.134 73.78C767.874 70.92 772.384 69.49 777.664 69.49C782.724 69.49 787.124 70.92 790.864 73.78C794.824 76.64 796.804 80.71 796.804 85.99V90.28ZM758.854 131.2C758.854 126.14 760.724 122.18 764.464 119.32C768.424 116.46 772.824 115.03 777.664 115.03C782.724 115.03 787.124 116.46 790.864 119.32C794.604 122.18 796.474 126.03 796.474 130.87V266.83C796.474 271.89 794.604 275.85 790.864 278.71C787.124 281.57 782.724 283 777.664 283C772.824 283 768.424 281.57 764.464 278.71C760.724 275.85 758.854 271.89 758.854 266.83V131.2Z" fill="white"/>
<path d="M898.493 111.73C915.873 111.73 931.163 115.47 944.363 122.95C957.783 130.21 968.123 140.55 975.383 153.97C982.643 167.17 986.273 182.46 986.273 199.84C986.053 217 982.203 232.18 974.723 245.38C967.463 258.36 957.233 268.48 944.033 275.74C930.833 282.78 915.653 286.3 898.493 286.3C881.333 286.3 866.153 282.78 852.953 275.74C839.753 268.48 829.413 258.36 821.933 245.38C814.673 232.18 810.933 217 810.713 199.84C810.713 182.46 814.343 167.17 821.603 153.97C829.083 140.55 839.423 130.21 852.623 122.95C865.823 115.47 881.113 111.73 898.493 111.73ZM898.493 253.3C913.233 253.3 925.113 248.35 934.133 238.45C943.153 228.55 947.663 215.68 947.663 199.84C947.663 183.56 943.153 170.36 934.133 160.24C925.113 149.9 913.233 144.73 898.493 144.73C883.753 144.73 871.873 149.9 862.853 160.24C853.833 170.36 849.323 183.56 849.323 199.84C849.323 215.68 853.833 228.55 862.853 238.45C871.873 248.35 883.753 253.3 898.493 253.3Z" fill="white"/>
<path d="M952.253 83.5552C946.879 83.2724 942.919 81.8582 940.374 79.3126C937.545 76.4841 936.272 72.9486 936.555 68.706C936.697 64.3219 938.394 60.5035 941.646 57.2508C945.748 53.1496 949.99 51.4526 954.374 52.1597L1022.04 50.6747C1025.3 50.2505 1027.98 50.3919 1030.11 51.099C1032.23 51.8061 1034.21 53.0789 1036.05 54.9174C1038.03 56.8973 1039.23 58.8065 1039.65 60.645C1040.22 62.342 1040.29 64.8169 1039.86 68.0696L1039.02 135.952C1039.02 137.932 1038.17 139.77 1036.47 141.467C1033.22 144.72 1028.55 146.558 1022.47 146.983C1016.39 147.124 1011.93 145.781 1009.1 142.952C1007.55 141.397 1006.77 139.487 1006.77 137.225L1008.68 82.2824L952.253 83.5552Z" fill="#4F39F6"/>
<path d="M1004.25 33.5552C998.879 33.2724 994.919 31.8582 992.374 29.3126C989.545 26.4841 988.272 22.9486 988.555 18.706C988.697 14.3219 990.394 10.5035 993.646 7.25084C997.748 3.14962 1001.99 1.45256 1006.37 2.15966L1074.04 0.674744C1077.3 0.250481 1079.98 0.391903 1082.11 1.09901C1084.23 1.80612 1086.21 3.07891 1088.05 4.91739C1090.03 6.89729 1091.23 8.80647 1091.65 10.645C1092.22 12.342 1092.29 14.8169 1091.86 18.0696L1091.02 85.9518C1091.02 87.9317 1090.17 89.7702 1088.47 91.4673C1085.22 94.7199 1080.55 96.5584 1074.47 96.9827C1068.39 97.1241 1063.93 95.7806 1061.1 92.9522C1059.55 91.3965 1058.77 89.4874 1058.77 87.2246L1060.68 32.2824L1004.25 33.5552Z" fill="#4F39F6"/>
</g>
</svg>
