<svg width="400" height="400" viewBox="936 0 157 148" xmlns="http://www.w3.org/2000/svg" fill="none" transform="scale(0.2)">
  <path d="M952.253 83.5552C946.879 83.2724 942.919 81.8582 940.374 79.3126C937.545 76.4841 936.272 72.9486 936.555 68.706C936.697 64.3219 938.394 60.5035 941.646 57.2508C945.748 53.1496 949.99 51.4526 954.374 52.1597L1022.04 50.6747C1025.3 50.2505 1027.98 50.3919 1030.11 51.099C1032.23 51.8061 1034.21 53.0789 1036.05 54.9174C1038.03 56.8973 1039.23 58.8065 1039.65 60.645C1040.22 62.342 1040.29 64.8169 1039.86 68.0696L1039.02 135.952C1039.02 137.932 1038.17 139.77 1036.47 141.467C1033.22 144.72 1028.55 146.558 1022.47 146.983C1016.39 147.124 1011.93 145.781 1009.1 142.952C1007.55 141.397 1006.77 139.487 1006.77 137.225L1008.68 82.2824L952.253 83.5552Z" fill="#4F39F6"/>
  <path d="M1004.25 33.5552C998.879 33.2724 994.919 31.8582 992.374 29.3126C989.545 26.4841 988.272 22.9486 988.555 18.706C988.697 14.3219 990.394 10.5035 993.646 7.25084C997.748 3.14962 1001.99 1.45256 1006.37 2.15966L1074.04 0.674744C1077.3 0.250481 1079.98 0.391903 1082.11 1.09901C1084.23 1.80612 1086.21 3.07891 1088.05 4.91739C1090.03 6.89729 1091.23 8.80647 1091.65 10.645C1092.22 12.342 1092.29 14.8169 1091.86 18.0696L1091.02 85.9518C1091.02 87.9317 1090.17 89.7702 1088.47 91.4673C1085.22 94.7199 1080.55 96.5584 1074.47 96.9827C1068.39 97.1241 1063.93 95.7806 1061.1 92.9522C1059.55 91.3965 1058.77 89.4874 1058.77 87.2246L1060.68 32.2824L1004.25 33.5552Z" fill="#4F39F6"/>
</svg>